HIERARCHY
ROOT Hips
{
    OFFSET   0.000000   0.000000   0.000000
    CHANNELS 6 Xposition Yposition Zposition Zrotation Xrotation Yrotation
    JOINT Chest
    {
        OFFSET   0.000000   8.007230   0.000000
        CHANNELS 3 Zrotation Xrotation Yrotation
        JOINT Chest2
        {
            OFFSET   0.000000  22.077100   0.000000
            CHANNELS 3 Zrotation Xrotation Yrotation
            JOINT Neck
            {
                OFFSET   0.000000  23.254700   0.000000
                CHANNELS 3 Zrotation Xrotation Yrotation
                JOINT Head
                {
                    OFFSET   0.000010  14.370000   1.956610
                    CHANNELS 3 Zrotation Xrotation Yrotation
                    End Site
                    {
                        OFFSET   0.000000  19.566000   0.000000
                    }
                }
            }
            JOINT LeftCollar
            {
                OFFSET   3.911900  19.017000  -0.467063
                CHANNELS 3 Zrotation Xrotation Yrotation
                JOINT LeftShoulder
                {
                    OFFSET  10.383700   0.000000   0.000000
                    CHANNELS 3 Zrotation Xrotation Yrotation
                    JOINT LeftElbow
                    {
                        OFFSET  26.662100   0.001671   0.000522
                        CHANNELS 3 Zrotation Xrotation Yrotation
                        JOINT LeftWrist
                        {
                            OFFSET  28.869000   0.000037  -0.000114
                            CHANNELS 3 Zrotation Xrotation Yrotation
                            JOINT LeftFinger0
                            {
                                OFFSET   2.044650  -2.323450   3.252850
                                CHANNELS 3 Zrotation Xrotation Yrotation
                                JOINT LeftFinger01
                                {
                                    OFFSET   3.088140   0.000000   0.000000
                                    CHANNELS 3 Zrotation Xrotation Yrotation
                                    JOINT LeftFinger02
                                    {
                                        OFFSET   2.639460   0.000000   0.000000
                                        CHANNELS 3 Zrotation Xrotation Yrotation
                                        End Site
                                        {
                                            OFFSET   2.582190   0.000000   0.000000
                                        }
                                    }
                                }
                            }
                            JOINT LeftFinger1
                            {
                                OFFSET   8.364480   0.000000   3.252850
                                CHANNELS 3 Zrotation Xrotation Yrotation
                                JOINT LeftFinger11
                                {
                                    OFFSET   4.646930   0.000000   0.000000
                                    CHANNELS 3 Zrotation Xrotation Yrotation
                                    JOINT LeftFinger12
                                    {
                                        OFFSET   2.323470   0.000000   0.000000
                                        CHANNELS 3 Zrotation Xrotation Yrotation
                                        End Site
                                        {
                                            OFFSET   2.273050   0.000000   0.000000
                                        }
                                    }
                                }
                            }
                            JOINT LeftFinger2
                            {
                                OFFSET   8.364490   0.000016   1.078090
                                CHANNELS 3 Zrotation Xrotation Yrotation
                                JOINT LeftFinger21
                                {
                                    OFFSET   5.111620   0.000000   0.000000
                                    CHANNELS 3 Zrotation Xrotation Yrotation
                                    JOINT LeftFinger22
                                    {
                                        OFFSET   2.788150   0.000013   0.000000
                                        CHANNELS 3 Zrotation Xrotation Yrotation
                                        End Site
                                        {
                                            OFFSET   2.727660   0.000000   0.000000
                                        }
                                    }
                                }
                            }
                            JOINT LeftFinger3
                            {
                                OFFSET   7.899780   0.000016  -1.078090
                                CHANNELS 3 Zrotation Xrotation Yrotation
                                JOINT LeftFinger31
                                {
                                    OFFSET   4.646930   0.000000   0.000000
                                    CHANNELS 3 Zrotation Xrotation Yrotation
                                    JOINT LeftFinger32
                                    {
                                        OFFSET   2.323470   0.000000   0.000000
                                        CHANNELS 3 Zrotation Xrotation Yrotation
                                        End Site
                                        {
                                            OFFSET   2.273050   0.000000   0.000000
                                        }
                                    }
                                }
                            }
                            JOINT LeftFinger4
                            {
                                OFFSET   7.435080   0.000000  -3.252850
                                CHANNELS 3 Zrotation Xrotation Yrotation
                                JOINT LeftFinger41
                                {
                                    OFFSET   3.717550   0.000000   0.000000
                                    CHANNELS 3 Zrotation Xrotation Yrotation
                                    JOINT LeftFinger42
                                    {
                                        OFFSET   1.858760   0.000000   0.000000
                                        CHANNELS 3 Zrotation Xrotation Yrotation
                                        End Site
                                        {
                                            OFFSET   1.818440   0.000000   0.000000
                                        }
                                    }
                                }
                            }
                        }
                    }
                }
            }
            JOINT RightCollar
            {
                OFFSET  -3.911900  19.017000  -0.467064
                CHANNELS 3 Zrotation Xrotation Yrotation
                JOINT RightShoulder
                {
                    OFFSET -10.383700   0.000000   0.000000
                    CHANNELS 3 Zrotation Xrotation Yrotation
                    JOINT RightElbow
                    {
                        OFFSET -26.662100   0.001633   0.000260
                        CHANNELS 3 Zrotation Xrotation Yrotation
                        JOINT RightWrist
                        {
                            OFFSET -28.869000  -0.000045  -0.000080
                            CHANNELS 3 Zrotation Xrotation Yrotation
                            JOINT RightFinger0
                            {
                                OFFSET  -2.044660  -2.323490   3.252850
                                CHANNELS 3 Zrotation Xrotation Yrotation
                                JOINT RightFinger01
                                {
                                    OFFSET  -3.088140   0.000000   0.000000
                                    CHANNELS 3 Zrotation Xrotation Yrotation
                                    JOINT RightFinger02
                                    {
                                        OFFSET  -2.639450   0.000000   0.000000
                                        CHANNELS 3 Zrotation Xrotation Yrotation
                                        End Site
                                        {
                                            OFFSET  -2.582190   0.000000   0.000000
                                        }
                                    }
                                }
                            }
                            JOINT RightFinger1
                            {
                                OFFSET  -8.364480   0.000000   3.252850
                                CHANNELS 3 Zrotation Xrotation Yrotation
                                JOINT RightFinger11
                                {
                                    OFFSET  -4.646920   0.000000   0.000000
                                    CHANNELS 3 Zrotation Xrotation Yrotation
                                    JOINT RightFinger12
                                    {
                                        OFFSET  -2.323470   0.000000   0.000000
                                        CHANNELS 3 Zrotation Xrotation Yrotation
                                        End Site
                                        {
                                            OFFSET  -2.273050   0.000000   0.000000
                                        }
                                    }
                                }
                            }
                            JOINT RightFinger2
                            {
                                OFFSET  -8.364480   0.000000   1.078090
                                CHANNELS 3 Zrotation Xrotation Yrotation
                                JOINT RightFinger21
                                {
                                    OFFSET  -5.111610   0.000000   0.000000
                                    CHANNELS 3 Zrotation Xrotation Yrotation
                                    JOINT RightFinger22
                                    {
                                        OFFSET  -2.788160   0.000000   0.000000
                                        CHANNELS 3 Zrotation Xrotation Yrotation
                                        End Site
                                        {
                                            OFFSET  -2.727660   0.000000   0.000000
                                        }
                                    }
                                }
                            }
                            JOINT RightFinger3
                            {
                                OFFSET  -7.899780   0.000000  -1.078090
                                CHANNELS 3 Zrotation Xrotation Yrotation
                                JOINT RightFinger31
                                {
                                    OFFSET  -4.646930   0.000000   0.000000
                                    CHANNELS 3 Zrotation Xrotation Yrotation
                                    JOINT RightFinger32
                                    {
                                        OFFSET  -2.323470   0.000000   0.000000
                                        CHANNELS 3 Zrotation Xrotation Yrotation
                                        End Site
                                        {
                                            OFFSET  -2.273050   0.000000   0.000000
                                        }
                                    }
                                }
                            }
                            JOINT RightFinger4
                            {
                                OFFSET  -7.435090   0.000000  -3.252850
                                CHANNELS 3 Zrotation Xrotation Yrotation
                                JOINT RightFinger41
                                {
                                    OFFSET  -3.717550   0.000000   0.000000
                                    CHANNELS 3 Zrotation Xrotation Yrotation
                                    JOINT RightFinger42
                                    {
                                        OFFSET  -1.858760   0.000000   0.000000
                                        CHANNELS 3 Zrotation Xrotation Yrotation
                                        End Site
                                        {
                                            OFFSET  -1.818440   0.000000   0.000000
                                        }
                                    }
                                }
                            }
                        }
                    }
                }
            }
        }
    }
    JOINT LeftHip
    {
        OFFSET   9.782990   0.000000   0.000000
        CHANNELS 3 Zrotation Xrotation Yrotation
        JOINT LeftKnee
        {
            OFFSET  -0.000063 -41.789100   0.001657
            CHANNELS 3 Zrotation Xrotation Yrotation
            JOINT LeftAnkle
            {
                OFFSET   0.000078 -41.133200  -0.000113
                CHANNELS 3 Zrotation Xrotation Yrotation
                JOINT LeftToe
                {
                    OFFSET   0.000000  -6.358970  14.674500
                    CHANNELS 3 Zrotation Xrotation Yrotation
                    End Site
                    {
                        OFFSET   0.000000   0.000000   3.913200
                    }
                }
            }
        }
    }
    JOINT RightHip
    {
        OFFSET  -9.782990   0.000000   0.000000
        CHANNELS 3 Zrotation Xrotation Yrotation
        JOINT RightKnee
        {
            OFFSET   0.000053 -41.789200   0.000277
            CHANNELS 3 Zrotation Xrotation Yrotation
            JOINT RightAnkle
            {
                OFFSET   0.000030 -41.133200  -0.000150
                CHANNELS 3 Zrotation Xrotation Yrotation
                JOINT RightToe
                {
                    OFFSET   0.000000  -6.358960  14.674500
                    CHANNELS 3 Zrotation Xrotation Yrotation
                    End Site
                    {
                        OFFSET   0.000000   0.000000   3.913200
                    }
                }
            }
        }
    }
}
MOTION
Frames: 4
Frame Time:   0.016667
 -0.936909  89.594300  -4.165170  -2.800800  -8.687820  -0.326554   0.506503   5.919530   0.804740   0.936413  11.845400   1.569200   1.667980  -2.034970   0.066608   2.750280  -4.127210   0.615834  -3.919240  -0.440072   0.738388 -74.787300  15.530000  -2.827430  -0.867201  -1.643740 -19.244600  11.966800  -2.662540   2.819020  38.656800  31.263800 -54.242400 -32.654700   0.000000   0.000062 -11.327300   0.001549  -0.000000 -32.167000   4.314960  -6.821880 -26.529000   0.008203   0.001567 -18.570300   0.011864   0.000462 -28.768400  -1.283600   2.335980 -42.763200  -0.001244   0.001377 -28.480300  -0.000396   0.001661 -28.724900  -1.281720   2.337020 -40.331800   0.001513   0.006953 -26.861000  -0.004580   0.001142 -35.078200  -1.532530   2.180790 -52.661100   0.000575   0.000000 -35.072300  -0.001276   0.000000   8.947020   0.975641   6.857390  71.118100   5.579410  -5.775750  -1.877950  -4.546870  18.176700 -12.891400  -2.722440   6.404890 -39.701300  39.064800  69.980700  36.076400   0.002395  -0.001635  13.038200  -0.001286   0.002615  34.171100   9.841120  14.131600  28.958600  -0.007732   0.011644  20.271000   0.004219   0.005499  39.563700   4.762440   5.737280  54.317200  -0.003613  -0.003926  37.220000  -0.000577  -0.002289  43.936500   2.494810   2.586640  54.446900   0.004285   0.000596  38.407300  -0.004087  -0.005126  55.325700  -6.730410  -4.635030  83.397700  -0.002438  -0.003972  55.542800  -0.003728  -0.002167   2.717360   9.363260   3.964880   1.069190   0.031774   1.611580  -1.843880  -1.407160   2.080720  -0.000000   0.000000   0.000000   4.733110   5.604480   0.596136  -2.764190   6.571860  -5.880440   0.672683  -4.877990  -0.671566   0.000000   0.000000   0.000000
 -0.936975  89.594300  -4.145990  -2.798140  -8.718140  -0.308886   0.506273   5.931510   0.803265   0.935965  11.869400   1.566190   1.675800  -2.039730   0.066566   2.763140  -4.131750   0.606589  -3.919230  -0.445090   0.735384 -74.777000  15.576900  -2.863420  -0.837243  -1.611460 -19.310400  11.974300  -2.685180   2.796820  38.672700  31.296100 -54.247200 -32.654100   0.000000   0.000067 -11.327000   0.001552   0.000000 -32.179000   4.308800  -6.809110 -26.538200   0.008208   0.001567 -18.576700   0.011867   0.000463 -28.767500  -1.294580   2.355970 -42.794400  -0.001245   0.001376 -28.501200  -0.000396   0.001661 -28.724100  -1.292720   2.356990 -40.355600   0.001514   0.006954 -26.876800  -0.004579   0.001143 -35.102700  -1.546870   2.198580 -52.698700   0.000575   0.000000 -35.097300  -0.001275   0.000000   8.951290   0.961748   6.867900  71.124500   5.622620  -5.778950  -1.890620  -4.515480  18.180600 -12.892300  -2.691220   6.403790 -39.635500  39.038900  70.116500  36.080400   0.002416  -0.001670  13.040200  -0.001282   0.002588  34.196800   9.841410  14.123900  28.979500  -0.007765   0.011641  20.285600   0.004209   0.005444  39.529100   4.762350   5.743990  54.316900  -0.003517  -0.004016  37.209400  -0.000626  -0.002337  43.926600   2.496220   2.589370  54.446900   0.004274   0.000622  38.399000  -0.004074  -0.005099  55.379700  -6.754000  -4.641770  83.480700  -0.002542  -0.003972  55.598100  -0.003924  -0.002120   2.713890   9.395620   3.971090   1.072270   0.041799   1.603500  -1.843730  -1.421640   2.062840  -0.000000   0.000000  -0.000000   4.732640   5.634580   0.596264  -2.759120   6.595220  -5.903280   0.672917  -4.877830  -0.668708  -0.000000   0.000000   0.000000
 -0.937096  89.594200  -4.113640  -2.794100  -8.771480  -0.281481   0.505933   5.953540   0.799810   0.935384  11.913400   1.559160   1.689370  -2.048390   0.066487   2.785490  -4.142680   0.584907  -3.919190  -0.452551   0.732380 -74.762200  15.676300  -2.936650  -0.791503  -1.578950 -19.402500  11.990100  -2.724120   2.774660  38.700800  31.341900 -54.263600 -32.649900   0.000000   0.000073 -11.324900   0.001554   0.000000 -32.196600   4.300320  -6.791270 -26.551600   0.008215   0.001567 -18.586100   0.011870   0.000467 -28.766600  -1.305570   2.375950 -42.847900  -0.001247   0.001374 -28.536800  -0.000398   0.001662 -28.723300  -1.303720   2.376960 -40.391700   0.001516   0.006957 -26.900800  -0.004578   0.001144 -35.143600  -1.561220   2.216370 -52.760800   0.000575   0.000000 -35.138700  -0.001273   0.000000   8.968440   0.929254   6.895770  71.138200   5.702670  -5.799160  -1.926340  -4.456620  18.212700 -12.877400  -2.660020   6.397130 -39.519600  38.984400  70.272700  36.095000   0.002472  -0.001732  13.047500  -0.001268   0.002525  34.224300   9.841920  14.105800  29.000300  -0.007833   0.011636  20.300200   0.004186   0.005337  39.494400   4.762270   5.750700  54.316700  -0.003314  -0.004166  37.198800  -0.000708  -0.002416  43.858300   2.500380   2.599660  54.446900   0.004251   0.000647  38.386300  -0.004052  -0.005053  55.433600  -6.777590  -4.648520  83.563700  -0.002647  -0.003971  55.653500  -0.004198  -0.002053   2.708020   9.458600   3.979020   1.078100   0.051824   1.595410  -1.843490  -1.436120   2.034860   0.000000   0.000000  -0.000000   4.731910   5.688010   0.596497  -2.750220   6.634580  -5.944630   0.673616  -4.877670  -0.660389  -0.000000   0.000000  -0.000000
 -0.937227  89.594100  -4.086870  -2.791250  -8.818780  -0.261162   0.505715   5.974540   0.794400   0.935239  11.955400   1.548180   1.700750  -2.055010   0.066387   2.804270  -4.155200   0.555838  -3.919080  -0.457306   0.743196 -74.756300  15.799800  -3.019780  -0.759696  -1.589180 -19.442000  12.011000  -2.758910   2.774890  38.725800  31.365500 -54.288900 -32.630100   0.000000   0.000036 -11.315100   0.001545  -0.000000 -32.204000   4.298680  -6.787490 -26.557300   0.008216   0.001568 -18.590100   0.011869   0.000476 -28.767200  -1.298130   2.362390 -42.896500  -0.001247   0.001376 -28.569100  -0.000400   0.001663 -28.724000  -1.296320   2.363390 -40.410900   0.001521   0.006963 -26.913700  -0.004578   0.001142 -35.178300  -1.553550   2.202870 -52.812400   0.000575  -0.000000 -35.173000  -0.001275   0.000000   9.003510   0.884098   6.944460  71.159500   5.784660  -5.871190  -2.011390  -4.401870  18.329300 -12.807000  -2.672730   6.340000 -39.450700  38.946100  70.267900  36.120600   0.002566  -0.001785  13.060300  -0.001244   0.002431  34.228900   9.821730  14.070800  29.000000  -0.007920   0.011627  20.300000   0.004157   0.005199  39.504000   4.762290   5.748980  54.318400  -0.003039  -0.004316  37.202100  -0.000792  -0.002495  43.629100   2.510010   2.627160  54.518900   0.004217   0.000639  38.382300  -0.004029  -0.005009  55.298500  -6.716840  -4.637410  83.355700  -0.002621  -0.003971  55.515000  -0.004317  -0.002024   2.702780   9.530830   3.981270   1.086470   0.026698   1.596520  -1.842660  -1.434670   2.015950  -0.000000   0.000000   0.000000   4.731480   5.736880   0.596770  -2.741920   6.666490  -5.987080   0.681180  -4.880350  -0.645272  -0.000000   0.000000   0.000000
